<svg width="70" height="30" viewBox="0 0 149 44" fill="none" xmlns="http://www.w3.org/2000/svg">
<g clip-path="url(#clip0_893_18689)">
<path d="M42.5576 27.2123C44.9984 29.2157 47.3557 30.2175 49.6296 30.2175C50.8406 30.2175 51.7981 29.9577 52.5085 29.4349C52.8484 29.1962 53.1236 28.8766 53.3094 28.505C53.4951 28.1334 53.5855 27.7214 53.5724 27.3062C53.5869 26.7621 53.4097 26.2302 53.0717 25.8036C52.5296 25.2343 51.8811 24.777 51.1629 24.4575L47.3453 22.6418C45.6555 21.8488 44.4717 20.9931 43.7937 20.0749C43.1034 19.1205 42.746 17.9655 42.7767 16.7879C42.7524 15.8555 42.9429 14.9301 43.3336 14.0832C43.7244 13.2364 44.3047 12.4908 45.0297 11.9044C45.7366 11.3249 46.5497 10.8889 47.4235 10.621C48.3511 10.3362 49.3165 10.1937 50.2867 10.1984C50.8639 10.2002 51.4398 10.2526 52.0078 10.3549C52.5784 10.4554 53.1387 10.6073 53.6819 10.8088C54.2038 11.0017 54.7067 11.2427 55.1839 11.5288C55.6296 11.802 56.0487 12.1164 56.4356 12.4679V16.8505C55.5407 15.9371 54.4988 15.1805 53.3534 14.6123C52.3489 14.1021 51.241 13.8291 50.1146 13.814C49.2505 13.7729 48.3973 14.0207 47.6895 14.5184C47.3908 14.74 47.1506 15.0312 46.9897 15.3666C46.8289 15.7021 46.7522 16.0718 46.7664 16.4436C46.7589 16.9432 46.9248 17.43 47.2358 17.821C47.7049 18.3291 48.2825 18.725 48.9255 18.9792L52.4928 20.6384C53.3186 21.014 54.1137 21.4536 54.871 21.9531C55.4613 22.3402 55.9889 22.8153 56.4356 23.3618C56.8229 23.845 57.1149 24.3974 57.2961 24.9897C57.4804 25.6199 57.5701 26.274 57.5621 26.9305C57.5857 27.9216 57.3756 28.9042 56.9489 29.7989C56.5221 30.6936 55.8907 31.4751 55.1057 32.0801C54.3378 32.6677 53.4678 33.1081 52.5398 33.3792C51.56 33.6722 50.5427 33.8199 49.5201 33.8175C48.2218 33.8197 46.9321 33.6082 45.7025 33.1914C44.5623 32.8222 43.4935 32.2611 42.542 31.5323L42.5576 27.2123Z" fill="white"/>
<path d="M57.3906 17.3982H61.881L66.4809 26.8521L71.0809 17.3982H75.4617L63.8524 39.9999H59.5654L64.3218 31.0782L57.3906 17.3982Z" fill="white"/>
<path d="M76.6758 33.4261V9.63477H80.8063V33.4261H76.6758Z" fill="white"/>
<path d="M81.9512 17.3982H86.5198L91.0571 26.8208L95.6258 17.3982H99.9753L90.9633 34.2712L81.9512 17.3982Z" fill="white"/>
<path d="M107.326 17.0227C109.848 17.0227 111.799 17.8888 113.178 19.621C114.555 21.3949 115.139 23.6801 114.93 26.4766H102.977C103.062 27.0487 103.264 27.597 103.571 28.0872C103.878 28.5774 104.283 28.9989 104.76 29.3253C105.739 30.014 106.98 30.3584 108.484 30.3584C109.459 30.355 110.426 30.1911 111.347 29.8731C112.226 29.5868 113.047 29.147 113.772 28.574V32.221C112.967 32.7546 112.079 33.1512 111.144 33.3949C110.114 33.6774 109.051 33.8196 107.983 33.8175C106.81 33.8231 105.645 33.6218 104.541 33.2227C103.496 32.8498 102.534 32.2754 101.709 31.5323C100.898 30.7915 100.248 29.8909 99.8004 28.8871C99.3215 27.8086 99.0813 26.6392 99.0964 25.4592C99.0918 24.3415 99.3121 23.2343 99.7441 22.2036C100.15 21.2103 100.739 20.3023 101.481 19.5271C102.224 18.7557 103.112 18.1387 104.094 17.7114C105.111 17.2567 106.212 17.022 107.326 17.0227ZM103.102 23.7218H111.081C111.009 22.7866 110.584 21.9138 109.892 21.2801C109.169 20.6408 108.228 20.3045 107.264 20.341C106.315 20.3224 105.39 20.6382 104.651 21.2331C103.88 21.874 103.336 22.7469 103.102 23.7218Z" fill="white"/>
<path d="M117.026 17.3983H121.157V19.8714C121.654 18.9558 122.418 18.2133 123.347 17.7427C124.277 17.262 125.324 17.0557 126.367 17.1479V21.2801C124.74 21.0714 123.467 21.3427 122.549 22.094C121.632 22.8453 121.173 24.014 121.173 25.6001V33.4262H117.042L117.026 17.3983Z" fill="white"/>
<path d="M134.672 17.0226C135.76 17.0097 136.834 17.2622 137.802 17.7582C138.674 18.1824 139.415 18.8373 139.942 19.6521V17.3982H144.073V33.426H139.942V31.1721C139.415 31.9869 138.674 32.6418 137.802 33.066C136.833 33.5606 135.76 33.813 134.672 33.8017C133.572 33.8154 132.482 33.5856 131.481 33.1286C130.544 32.697 129.708 32.0731 129.027 31.2973C128.339 30.5108 127.804 29.6032 127.447 28.6208C126.692 26.5484 126.692 24.2759 127.447 22.2034C127.804 21.221 128.339 20.3134 129.027 19.5269C129.708 18.7511 130.544 18.1272 131.481 17.6956C132.482 17.2386 133.572 17.0088 134.672 17.0226ZM135.486 30.2643C136.106 30.2703 136.72 30.1421 137.285 29.8886C137.828 29.647 138.318 29.3014 138.728 28.8712C139.138 28.4261 139.457 27.905 139.667 27.3373C139.901 26.7228 140.018 26.0697 140.011 25.4121C140.018 24.7595 139.902 24.1114 139.667 23.5026C139.452 22.937 139.134 22.4167 138.728 21.9686C138.326 21.5337 137.838 21.1873 137.295 20.9512C136.727 20.7073 136.114 20.5847 135.495 20.5912C134.889 20.5868 134.287 20.7095 133.731 20.9512C133.185 21.1869 132.693 21.5334 132.288 21.9686C131.877 22.4155 131.553 22.9359 131.334 23.5026C131.101 24.1121 130.986 24.7598 130.993 25.4121C130.986 26.0694 131.102 26.7222 131.334 27.3373C131.548 27.9062 131.873 28.4274 132.288 28.8712C132.698 29.3007 133.188 29.6462 133.731 29.8886C134.282 30.1385 134.881 30.2666 135.486 30.2643Z" fill="white"/>
<path d="M9.14129 19.43C9.13817 20.2964 9.24329 21.1598 9.45421 22.0001C10.0247 24.2099 11.3135 26.1673 13.1177 27.5642C14.922 28.9611 17.1392 29.7183 19.4207 29.7166V34.8599H19.0233C15.4505 34.7695 12.0201 33.44 9.31906 31.0988C6.61799 28.7575 4.81407 25.5501 4.21593 22.0251C4.07092 21.1762 3.99869 20.3163 4.00002 19.4551C3.99961 17.4289 4.39817 15.4225 5.17295 13.5505C5.94773 11.6785 7.08354 9.97749 8.51552 8.54465C9.94751 7.11181 11.6476 5.97521 13.5187 5.19974C15.3899 4.42428 17.3954 4.02515 19.4207 4.02515V9.16845H19.0233C16.3708 9.27267 13.8613 10.3988 12.0196 12.3112C10.1778 14.2237 9.14651 16.7744 9.14129 19.43Z" fill="white"/>
<path d="M34.8447 24.5701C34.8447 26.5964 34.4458 28.6028 33.6706 30.4749C32.8955 32.3469 31.7594 34.0479 30.3272 35.4807C28.8949 36.9135 27.1946 38.05 25.3233 38.8255C23.452 39.6009 21.4464 40 19.4209 40V34.8567H19.8183C22.4746 34.7531 24.9877 33.6248 26.8305 31.7082C28.6734 29.7916 29.703 27.2357 29.7034 24.5763C29.7066 23.71 29.6014 22.8466 29.3905 22.0063C28.8192 19.7983 27.531 17.8427 25.7282 16.4466C23.9254 15.0505 21.7101 14.2929 19.4303 14.2929V9.14331H19.8277C23.4031 9.23424 26.8357 10.5659 29.5376 12.9102C32.2395 15.2546 34.0426 18.4657 34.6382 21.9937C34.7804 22.845 34.8495 23.707 34.8447 24.5701Z" fill="#3ACB5A"/>
</g>
<defs>
<clipPath id="clip0_893_18689">
<rect width="140.06" height="36" fill="white" transform="translate(4 4)"/>
</clipPath>
</defs>
</svg>
